<svg width="24" height="24" viewBox="0 0 24 24" fill="none" xmlns="http://www.w3.org/2000/svg">
<g id="phone">
<path id="Vector" d="M16.5 21.3752C8.84934 21.3752 2.625 15.1509 2.625 7.50021C2.62647 6.13182 3.12605 4.81077 4.03041 3.78383C4.93478 2.75689 6.18206 2.0943 7.53928 1.91983C7.94235 1.87114 8.35035 1.95416 8.70232 2.15651C9.0543 2.35886 9.33136 2.66967 9.49209 3.04249L11.3755 7.4373C11.4977 7.72145 11.5475 8.03145 11.5205 8.33956C11.4936 8.64768 11.3906 8.9443 11.2209 9.20289L9.78037 11.4041C10.4219 12.6114 11.4123 13.5974 12.6223 14.2336L14.7877 12.7897C15.047 12.6161 15.3456 12.5102 15.6563 12.4817C15.967 12.4531 16.2799 12.5028 16.5665 12.6262L20.9576 14.5081C21.3306 14.6687 21.6415 14.9457 21.8439 15.2977C22.0463 15.6497 22.1292 16.0578 22.0804 16.4609C21.9059 17.8181 21.2433 19.0654 20.2164 19.9698C19.1894 20.8742 17.8684 21.3737 16.5 21.3752ZM7.54012 4.19974C6.78584 4.36294 6.11012 4.77936 5.62528 5.37978C5.14044 5.9802 4.87568 6.72847 4.875 7.50021C4.87847 10.5823 6.10436 13.5371 8.28372 15.7165C10.4631 17.8958 13.4179 19.1217 16.5 19.1252C17.2717 19.1245 18.02 18.8597 18.6204 18.3749C19.2208 17.89 19.6372 17.2143 19.8005 16.4601L15.867 14.7744L13.689 16.2266C13.419 16.4069 13.1068 16.5139 12.783 16.5372C12.4592 16.5604 12.1349 16.4992 11.8418 16.3594C10.0217 15.4773 8.54906 14.0115 7.65872 12.1953C7.5183 11.904 7.45556 11.5814 7.47659 11.2588C7.49761 10.9361 7.60169 10.6243 7.77872 10.3538L9.22837 8.13883L7.54012 4.19974Z" fill="#2D3134"/>
</g>
</svg>
